<svg width="23" height="23" viewBox="0 0 23 23" fill="none" xmlns="http://www.w3.org/2000/svg">
<path d="M10.5525 3.56224H3.55249C3.02206 3.56224 2.51335 3.77295 2.13828 4.14803C1.7632 4.5231 1.55249 5.03181 1.55249 5.56224V19.5622C1.55249 20.0927 1.7632 20.6014 2.13828 20.9765C2.51335 21.3515 3.02206 21.5622 3.55249 21.5622H17.5525C18.0829 21.5622 18.5916 21.3515 18.9667 20.9765C19.3418 20.6014 19.5525 20.0927 19.5525 19.5622V12.5622" stroke="#1D4ED8" stroke-width="2" stroke-linecap="round" stroke-linejoin="round"/>
<path d="M18.0525 2.06224C18.4503 1.66441 18.9899 1.44092 19.5525 1.44092C20.1151 1.44092 20.6547 1.66441 21.0525 2.06224C21.4503 2.46006 21.6738 2.99963 21.6738 3.56224C21.6738 4.12485 21.4503 4.66441 21.0525 5.06224L11.5525 14.5622L7.55249 15.5622L8.55249 11.5622L18.0525 2.06224Z" stroke="#1D4ED8" stroke-width="2" stroke-linecap="round" stroke-linejoin="round"/>
</svg>
